<svg width="2575" height="1440" xmlns="http://www.w3.org/2000/svg">
 <g>
  <title>Layer 1</title>
  <path id="svg_15" d="m-617.28235,-1042.27951l2.68309,91.72692l42.89406,-0.77519l-0.2584,-18.60465c0.15929,0.00434 42.01975,-0.25405 42.01975,-0.25405c0,0 -0.77519,-73.38501 -0.93448,-73.38936c0.15928,0.00435 -47.64433,-308.97071 -86.40402,1.29634l0,-0.00001z" opacity="NaN" stroke="#000" fill="none"/>
  <path id="svg_16" d="m-620.99036,-1039.31307l87.17921,-0.77954c0.15928,0.00435 0.41768,72.35577 0.93448,72.87256c0.5168,0.5168 -43.66925,0.5168 -43.82853,0.51245c0.15929,0.00434 0.67608,19.38419 0.67608,19.38419c0,0 -43.41085,-0.5168 -43.57014,-0.52114c0.15929,0.00434 85.1722,-92.76051 -1.3911,-91.46852z" opacity="NaN" stroke="#000" fill="none"/>
  <path id="svg_23" d="m-865.81043,-862.0744l0.27134,17.65288l-9.30233,0.5168l0.5168,13.69509c0.24546,0.17657 211.61496,-3.1826 211.61496,-3.1826c0,0 0,-33.59173 -0.24545,-33.7683c0.24545,0.17657 2.57103,108.78988 -202.85532,5.08613z" opacity="NaN" stroke="#000" fill="none"/>
  <path id="svg_27" d="m-4057.14413,-2204.11113l35.58893,3.88887c0.07774,0.11113 -0.92226,17.61113 -0.92226,17.61113c0,0 -15,7.33333 -15.07773,7.2222c0.07774,0.11113 -6.92226,-11.2222 -6.92226,-11.2222c0,0 3.33333,-0.33333 3.2556,-0.44446c0.07774,0.11113 0.2444,-8.38887 0.16667,-8.5c0.07774,0.11113 -16.2556,-1.7222 -16.33333,-1.83333c0.07774,0.11113 31.41107,-5.88887 0.2444,-6.7222l-0.00002,-0.00001z" opacity="NaN" stroke="#000" fill="none"/>
  <g stroke-width="2" stroke="null" id="svg_12"/>
  <path stroke="#000" fill="none" opacity="NaN" d="m847.76301,515.93512c0,0 1.07145,34.34159 1.07145,34.34159c0,0 6.4287,6.54126 6.4287,6.54126c0,0 3.21435,31.07096 3.20543,30.95291c0.00891,0.11805 213.22738,-0.97216 213.22738,-0.97216c0,0 -4.92119,-17.86486 24.82088,-70.67978" id="svg_2"/>
  <path stroke="#000" fill="none" opacity="NaN" d="m846.69156,515.93512c0,0 247.50485,0.5451 247.50485,0.5451" id="svg_3"/>
  <path stroke="#000" id="svg_1" d="m931.78592,606.41912c0,0 -34.45369,12.44625 -34.45369,12.44625c0,0 1.83482,60.36428 1.83482,60.15684c0,-0.20744 156.97833,-2.90413 156.80846,-3.02161c0.16987,0.11749 -9.00419,-10.04695 -9.17406,-10.16443c0.16987,0.11749 19.94506,-16.89238 19.77519,-17.00986c0.16987,0.11749 -0.23786,-2.16432 -0.44173,-18.55188c-13.86303,-0.20744 -5.30057,0.41488 -33.84208,0.41488" opacity="NaN" fill="none"/>
  <path stroke="#000" id="svg_4" d="m1031.06962,631.10418" opacity="NaN" fill="none"/>
  <path stroke="#000" id="svg_9" d="m1031.8851,631.10418l-0.16987,-5.7183l-61.97586,1.24462c0.16987,0.11749 3.02402,-17.92957 3.02402,-17.92957c0,0 -2.85415,-2.90413 -3.02402,-3.02161c0.16987,0.11749 -38.7689,0.32493 -38.93879,0.20744" opacity="NaN" fill="none"/>
  <path stroke="#000" id="svg_10" d="m731.46529,627.41183c0,0 -34.65756,3.319 -34.50128,3.15998c0.0476,0.15901 5.34816,32.93412 5.34816,32.93412c0,0 29.76473,-3.73387 29.76473,-3.73387c0,0 -2.24254,-19.91399 -2.29014,-20.073c0.0476,0.15901 49.38363,-4.81948 49.33605,-4.97849c0.04758,0.15901 0.45532,12.60526 0.40774,12.44625c0.04758,0.15901 5.34815,-5.64923 5.30057,-5.80825c0.04758,0.15901 6.9791,3.47801 6.93151,3.319c0.04758,0.15901 8.2023,0.57389 8.15472,0.41488c0.04758,0.15901 16.56089,-3.15998 16.51331,-3.319c0.04758,0.15901 13.91061,-7.10129 13.86303,-7.26031c0.04758,0.15901 14.72608,-16.22855 14.67849,-16.38756c0.04758,0.15901 -4.02978,-52.53009 -4.07736,-52.6891c0.04758,0.15901 -55.20063,4.5152 -55.24821,4.35619c0.04758,0.15901 -0.97175,36.46056 -1.01934,36.30155c0.04758,0.15901 2.08627,15.71682 2.08627,15.92426c0,0.20744 -55.24821,5.39337 -55.24821,5.39337l-0.00004,-0.00001z" opacity="NaN" fill="none"/>
  <path stroke="#000" id="svg_17" d="m976.90595,745.773l2.8967,112.08804l51.24409,-0.94231c0.1903,0.04715 0.1903,-24.45298 0.1903,-24.45298c0,0 51.24409,0.31411 51.24409,0.31411c0,0 -0.92609,-87.63507 -1.11639,-87.68222c0.19029,0.04715 -100.75438,1.30357 -100.75438,1.30357" opacity="NaN" fill="none"/>
  <path stroke="#000" id="svg_18" d="m1111.49883,711.84974c0,0 0.3087,6.59619 0.3087,6.59619c0,0 13.27407,-0.62821 13.08378,-0.67537c0.19029,0.04715 1.11639,52.81665 0.92609,52.7695c0.19029,0.04715 9.75997,-0.26695 9.56968,-0.31411c0.19029,0.04715 0.19029,17.95109 0.19029,17.95109c0,0 23.46114,-0.62821 23.27086,-0.67537c0.19029,0.04715 0.49899,14.49594 0.49899,14.49594c0,0 61.12246,-1.57052 60.93217,-1.61767c0.19029,0.04715 -1.04451,-89.15843 -1.04451,-89.15843c0,0 -107.73606,0.62821 -107.73606,0.62821l0,0.00001z" opacity="NaN" fill="none"/>
  <path stroke="#000" id="svg_20" d="m1082.1724,808.86606c0,0 0.3087,26.07065 0.1184,26.06536c0.19029,0.00528 54.21267,-2.19345 54.83007,-2.19345c0.6174,0 -0.6174,-31.41042 -0.80769,-31.4157c0.19029,0.00529 22.72534,0.9476 22.53505,0.94231c0.19029,0.00529 -0.42711,-15.69993 -0.6174,-15.70521c0.19029,0.00529 -22.65345,1.2617 -23.15244,1.25641c0.19029,0.00529 0.19029,-17.89866 0,-17.90394c0.19029,0.00529 -9.37938,0.00529 -9.56968,0c0.19029,0.00529 -0.42711,-52.45012 -0.6174,-52.45539c0.19029,0.00529 -13.39248,0.31939 -13.39248,0.31939c0,0 1.2348,91.40432 1.2348,91.40432c0,0 -30.56122,-0.31411 -30.56122,-0.31411l0.00001,0z" opacity="NaN" fill="none"/>
  <path stroke="#000" id="svg_21" d="m1296.20395,710.23736l0.63286,11.61658l24.38725,-0.31411l0,36.12198l108.66215,-0.94231l-1.2348,-48.68615l-132.44747,2.20401z" opacity="NaN" fill="none"/>
  <path stroke="#000" id="svg_22" d="m1321.20861,757.98119l0.63286,40.51416l95.07938,-0.94231c0.29323,0.00529 12.3325,-33.60386 12.3325,-33.60386c0,0 -49.39189,-0.31411 -49.68512,-0.31938c0.29323,0.00529 1.83673,-6.90501 1.5435,-6.91029c-0.94156,0.9476 -17.61133,0.63349 -59.90314,1.2617l0.00001,-0.00002z" opacity="NaN" fill="none"/>
  <path stroke="#000" id="svg_25" d="m1134.79192,629.48057c0,0 242.94635,-4.71156 242.94635,-4.71156c0,0 -0.6174,38.94892 -0.6174,38.94892c-102.60868,2.6087 -251.28122,5.33977 -251.28122,5.33977c0,0 0,-19.78856 -0.29324,-20.0032c0.29324,0.21464 10.17162,-0.72767 10.17162,-0.72767c0,0 -0.92609,-18.84626 -0.92609,-18.84626l0,0.00001z" opacity="NaN" fill="none"/>
  <path stroke="#000" id="svg_28" d="m1796.31024,740.80246l-0.69021,10.19737l18.91555,1.62077l-0.39822,7.69869l-3.584,2.22857l7.76533,15.59998l19.91111,-11.34544l1.59288,-21.6779l-43.51245,-4.32205l0,0.00001z" opacity="NaN" fill="none"/>
  <path stroke="#000" id="svg_29" d="m1814.03113,751.73974c0,0 0,8.50908 -0.09287,8.37399c0.09287,0.13509 -4.08846,2.36365 -4.18133,2.22857c0.09287,0.13509 8.25642,15.53248 8.16355,15.39739c0.09287,0.13509 -69.39689,34.9818 -69.39689,34.9818c0,0 -99.95374,-32.82075 -99.95374,-32.82075c0,0 -22.49954,1.01298 -22.59242,0.87789c0.09287,0.13509 -4.48668,-8.98179 -4.57955,-9.11687c0.09287,0.13509 20.4022,2.36365 20.30933,2.22857c0.09287,0.13509 0.49109,-5.94283 0.39822,-6.07792c0.09287,0.13509 -15.83601,0.54028 -15.92888,0.40519c0.09287,0.13509 -6.87601,-14.24931 -7.168,-14.587c0.09287,0.13509 125.53283,40.24933 125.53283,40.24933c0,0 49.97687,-25.12206 49.884,-25.25713c0.09287,0.13509 1.08842,-18.30126 1.08842,-18.30126l18.51733,1.4182z" opacity="NaN" fill="none"/>
  <rect stroke="null" fill="#639BB7" x="850.86924" y="497.03178" width="33.51702" height="15.19479" id="svg_6"/>
  <rect stroke="null" fill="#639BB7" x="940.80105" y="499.39542" width="43.80442" height="13.84414" id="svg_7"/>
  <rect stroke="null" fill="#639BB7" x="1053.29879" y="500.74607" width="39.15851" height="12.83116" id="svg_8"/>
  <rect stroke="null" fill="#639BB7" x="997.21585" y="500.07074" width="38.4948" height="12.83116" id="svg_11"/>
  <rect stroke="null" fill="#639BB7" x="924.20846" y="683.87138" width="21.90221" height="14.18181" id="svg_13"/>
  <rect stroke="null" fill="#639BB7" x="954.73883" y="684.20905" width="24.88888" height="14.18181" id="svg_19"/>
  <rect stroke="null" fill="#639BB7" x="993.23363" y="685.22204" width="21.90221" height="12.83116" id="svg_24"/>
  <rect stroke="null" fill="#639BB7" x="1029.40546" y="684.20905" width="20.90666" height="11.81817" id="svg_26"/>
  <rect stroke="null" fill="#639BB7" x="1084.49285" y="786.22797" width="9.62371" height="15.53246" id="svg_30"/>
  <rect stroke="null" fill="#639BB7" x="1083.4973" y="753.47476" width="10.2874" height="21.27271" id="svg_31"/>
  <rect stroke="null" fill="#639BB7" x="1056.61731" y="733.89037" width="15.92888" height="9.45454" id="svg_32"/>
  <rect stroke="null" fill="#639BB7" x="1020.77732" y="734.22803" width="18.25185" height="9.7922" id="svg_33"/>
  <rect stroke="null" fill="#639BB7" x="987.59215" y="732.20206" width="18.91555" height="11.81817" id="svg_34"/>
  <rect stroke="null" fill="#639BB7" x="963.36697" y="750.43581" width="11.94666" height="17.22077" id="svg_35"/>
  <rect stroke="null" fill="#639BB7" x="964.69438" y="772.38384" width="11.28295" height="19.24673" id="svg_36"/>
  <rect stroke="null" fill="#639BB7" x="1186.03949" y="699.78651" width="18.25185" height="9.45454" id="svg_37"/>
  <rect stroke="null" fill="#639BB7" x="1153.51802" y="699.78651" width="17.58814" height="10.12986" id="svg_38"/>
  <rect stroke="null" fill="#639BB7" x="1129.29284" y="699.78651" width="13.60592" height="10.46752" id="svg_39"/>
  <rect stroke="null" fill="#639BB7" x="1127.61146" y="673.49389" width="21.90221" height="11.14285" id="svg_40"/>
  <rect stroke="null" fill="#639BB7" x="1159.46922" y="672.81856" width="20.90666" height="11.4805" id="svg_41"/>
  <rect stroke="null" fill="#639BB7" x="1189.99959" y="672.4809" width="22.23407" height="10.12986" id="svg_42"/>
  <rect stroke="null" fill="#639BB7" x="1221.19365" y="673.15622" width="22.89777" height="9.45454" id="svg_43"/>
  <rect stroke="null" fill="#639BB7" x="1253.05141" y="672.4809" width="22.89777" height="9.45454" id="svg_44"/>
  <rect stroke="null" fill="#639BB7" x="1284.90918" y="671.13026" width="20.90666" height="10.46752" id="svg_45"/>
  <rect stroke="null" fill="#639BB7" x="1316.10325" y="669.7796" width="19.57925" height="12.4935" id="svg_46"/>
  <rect stroke="null" fill="#639BB7" x="1295.92327" y="697.24464" width="15.44436" height="9.24398" id="svg_47"/>
  <rect stroke="null" fill="#639BB7" x="1322.72375" y="697.27551" width="18.16983" height="9.24398" id="svg_48"/>
  <rect stroke="null" fill="#639BB7" x="1350.43275" y="695.88892" width="16.80709" height="11.09278" id="svg_49"/>
  <rect stroke="null" fill="#639BB7" x="1376.779" y="696.35112" width="17.26134" height="10.63058" id="svg_50"/>
  <rect stroke="null" fill="#639BB7" x="1404.48799" y="695.42672" width="16.80709" height="11.55497" id="svg_51"/>
  <rect stroke="null" fill="#639BB7" x="1844.09014" y="747.10859" width="12.34488" height="13.37142" id="svg_52"/>
  <rect stroke="null" fill="#639BB7" x="1825.90145" y="731.92271" width="12.34488" height="9.11687" id="svg_53"/>
  <rect stroke="null" fill="#639BB7" x="1802.57564" y="728.87781" width="14.73421" height="9.72467" id="svg_54"/>
  <rect stroke="null" fill="#639BB7" x="892.17271" y="498.62024" width="40.02128" height="13.97919" id="svg_56"/>
  <path id="svg_59" d="m1007.11427,380.84335c0,0 52.59375,0 52.59375,0c0,0 -0.35778,-17.88903 -0.49837,-18.23265c0.14059,0.16473 -36.17415,-0.19305 -36.31474,-0.35778c0.14059,0.16473 -0.0383,-11.10536 -0.0383,-11.10536c0,0 -16.99458,0.17889 -17.13517,0.19305c0.14059,0.16473 1.39283,29.50274 1.39283,29.50274z" opacity="NaN" stroke="#000" fill="none"/>
 </g>

</svg>